<svg width="38" height="37" viewBox="0 0 38 37" fill="none" xmlns="http://www.w3.org/2000/svg">
<rect width="38" height="37" rx="18.5" fill="white"/>
<path d="M28.0003 18.5C28.0003 18.6989 27.9213 18.8897 27.7807 19.0303C27.64 19.171 27.4493 19.25 27.2503 19.25H12.5607L18.031 24.7194C18.1007 24.7891 18.1559 24.8718 18.1936 24.9628C18.2314 25.0539 18.2508 25.1515 18.2508 25.25C18.2508 25.3486 18.2314 25.4461 18.1936 25.5372C18.1559 25.6282 18.1007 25.7109 18.031 25.7806C17.9613 25.8503 17.8786 25.9056 17.7875 25.9433C17.6965 25.981 17.5989 26.0004 17.5003 26.0004C17.4018 26.0004 17.3042 25.981 17.2132 25.9433C17.1221 25.9056 17.0394 25.8503 16.9697 25.7806L10.2197 19.0306C10.15 18.961 10.0947 18.8783 10.0569 18.7872C10.0192 18.6962 9.99976 18.5986 9.99976 18.5C9.99976 18.4014 10.0192 18.3038 10.0569 18.2128C10.0947 18.1218 10.15 18.039 10.2197 17.9694L16.9697 11.2194C17.1105 11.0786 17.3013 10.9996 17.5003 10.9996C17.6994 10.9996 17.8902 11.0786 18.031 11.2194C18.1717 11.3601 18.2508 11.551 18.2508 11.75C18.2508 11.949 18.1717 12.1399 18.031 12.2806L12.5607 17.75H27.2503C27.4493 17.75 27.64 17.829 27.7807 17.9697C27.9213 18.1103 28.0003 18.3011 28.0003 18.5Z" fill="#2E352E"/>
</svg>
