<svg width="24" height="25" viewBox="0 0 24 25" fill="none" xmlns="http://www.w3.org/2000/svg">
<path d="M20.364 13.207C20.5515 13.0195 20.6568 12.7652 20.6568 12.5C20.6568 12.2348 20.5515 11.9805 20.364 11.793L14.707 6.136C14.6148 6.04049 14.5044 5.96431 14.3824 5.9119C14.2604 5.85949 14.1292 5.8319 13.9964 5.83075C13.8636 5.8296 13.732 5.8549 13.6091 5.90518C13.4862 5.95546 13.3745 6.02971 13.2806 6.1236C13.1867 6.2175 13.1125 6.32915 13.0622 6.45205C13.0119 6.57494 12.9866 6.70662 12.9878 6.8394C12.9889 6.97218 13.0165 7.1034 13.0689 7.2254C13.1213 7.34741 13.1975 7.45775 13.293 7.55L17.243 11.5L4.00001 11.5C3.7348 11.5 3.48044 11.6054 3.29291 11.7929C3.10537 11.9804 3.00001 12.2348 3.00001 12.5C3.00001 12.7652 3.10537 13.0196 3.29291 13.2071C3.48044 13.3946 3.7348 13.5 4.00001 13.5L17.243 13.5L13.293 17.45C13.1109 17.6386 13.0101 17.8912 13.0123 18.1534C13.0146 18.4156 13.1198 18.6664 13.3052 18.8518C13.4906 19.0372 13.7414 19.1424 14.0036 19.1447C14.2658 19.147 14.5184 19.0462 14.707 18.864L20.364 13.207Z" fill="#2E352E"/>
</svg>
