<svg width="8" height="10" viewBox="0 0 8 10" fill="none" xmlns="http://www.w3.org/2000/svg">
<path d="M3.98239 1.557C3.24333 1.557 2.52086 1.77615 1.90635 2.18676C1.29183 2.59736 0.812881 3.18097 0.530053 3.86378C0.247225 4.54658 0.173224 5.29793 0.317408 6.02279C0.461593 6.74766 0.817487 7.41349 1.34009 7.93609C1.86268 8.45869 2.52852 8.81458 3.25338 8.95877C3.97825 9.10295 4.72959 9.02895 5.4124 8.74612C6.09521 8.46329 6.67881 7.98434 7.08941 7.36983C7.50002 6.75532 7.71918 6.03285 7.71918 5.29378C7.71804 4.30307 7.32398 3.35326 6.62345 2.65273C5.92291 1.95219 4.9731 1.55813 3.98239 1.557ZM3.98239 8.40777C3.3665 8.40777 2.76445 8.22514 2.25235 7.88297C1.74026 7.5408 1.34113 7.05446 1.10544 6.48545C0.869752 5.91645 0.808085 5.29033 0.928239 4.68627C1.04839 4.08222 1.34497 3.52736 1.78047 3.09186C2.21597 2.65636 2.77083 2.35978 3.37488 2.23963C3.97894 2.11947 4.60506 2.18114 5.17406 2.41683C5.74307 2.65252 6.22941 3.05165 6.57158 3.56374C6.91375 4.07584 7.09638 4.67789 7.09638 5.29378C7.09545 6.11938 6.76707 6.91089 6.18329 7.49468C5.5995 8.07846 4.80799 8.40684 3.98239 8.40777ZM5.7597 3.51647C5.78865 3.54539 5.81162 3.57974 5.82729 3.61754C5.84296 3.65534 5.85103 3.69586 5.85103 3.73679C5.85103 3.77771 5.84296 3.81823 5.82729 3.85603C5.81162 3.89384 5.78865 3.92818 5.7597 3.9571L4.20271 5.5141C4.17377 5.54303 4.13943 5.56598 4.10163 5.58164C4.06382 5.59729 4.02331 5.60535 3.98239 5.60535C3.94148 5.60535 3.90096 5.59729 3.86316 5.58164C3.82536 5.56598 3.79101 5.54303 3.76208 5.5141C3.73314 5.48516 3.71019 5.45082 3.69454 5.41301C3.67888 5.37521 3.67082 5.3347 3.67082 5.29378C3.67082 5.25286 3.67888 5.21235 3.69454 5.17455C3.71019 5.13675 3.73314 5.1024 3.76208 5.07347L5.31907 3.51647C5.34799 3.48752 5.38234 3.46455 5.42014 3.44888C5.45794 3.43321 5.49846 3.42514 5.53939 3.42514C5.58031 3.42514 5.62083 3.43321 5.65863 3.44888C5.69644 3.46455 5.73078 3.48752 5.7597 3.51647ZM2.7368 0.6228C2.7368 0.540212 2.7696 0.461007 2.828 0.402608C2.8864 0.344209 2.96561 0.311401 3.0482 0.311401H4.91659C4.99918 0.311401 5.07838 0.344209 5.13678 0.402608C5.19518 0.461007 5.22799 0.540212 5.22799 0.6228C5.22799 0.705388 5.19518 0.784594 5.13678 0.842992C5.07838 0.901391 4.99918 0.934199 4.91659 0.934199H3.0482C2.96561 0.934199 2.8864 0.901391 2.828 0.842992C2.7696 0.784594 2.7368 0.705388 2.7368 0.6228Z" fill="#2E352E" fill-opacity="0.47"/>
</svg>
