<svg width="34" height="34" viewBox="0 0 34 34" fill="none" xmlns="http://www.w3.org/2000/svg">
<path d="M25.925 8.08916C25.7939 7.95783 25.6383 7.85364 25.4669 7.78255C25.2955 7.71146 25.1118 7.67487 24.9263 7.67487C24.7407 7.67487 24.557 7.71146 24.3856 7.78255C24.2142 7.85364 24.0586 7.95783 23.9275 8.08916L17 15.0025L10.0725 8.075C9.94135 7.94384 9.78565 7.8398 9.61428 7.76882C9.44292 7.69783 9.25925 7.6613 9.07376 7.6613C8.88828 7.6613 8.70461 7.69783 8.53324 7.76882C8.36188 7.8398 8.20617 7.94384 8.07501 8.075C7.94385 8.20615 7.83981 8.36186 7.76883 8.53323C7.69785 8.70459 7.66132 8.88826 7.66132 9.07375C7.66132 9.25923 7.69785 9.4429 7.76883 9.61427C7.83981 9.78563 7.94385 9.94134 8.07501 10.0725L15.0025 17L8.07501 23.9275C7.94385 24.0587 7.83981 24.2144 7.76883 24.3857C7.69785 24.5571 7.66132 24.7408 7.66132 24.9262C7.66132 25.1117 7.69785 25.2954 7.76883 25.4668C7.83981 25.6381 7.94385 25.7938 8.07501 25.925C8.20617 26.0562 8.36188 26.1602 8.53324 26.2312C8.70461 26.3022 8.88828 26.3387 9.07376 26.3387C9.25925 26.3387 9.44292 26.3022 9.61428 26.2312C9.78565 26.1602 9.94135 26.0562 10.0725 25.925L17 18.9975L23.9275 25.925C24.0587 26.0562 24.2144 26.1602 24.3857 26.2312C24.5571 26.3022 24.7408 26.3387 24.9263 26.3387C25.1117 26.3387 25.2954 26.3022 25.4668 26.2312C25.6381 26.1602 25.7939 26.0562 25.925 25.925C26.0562 25.7938 26.1602 25.6381 26.2312 25.4668C26.3022 25.2954 26.3387 25.1117 26.3387 24.9262C26.3387 24.7408 26.3022 24.5571 26.2312 24.3857C26.1602 24.2144 26.0562 24.0587 25.925 23.9275L18.9975 17L25.925 10.0725C26.4633 9.53416 26.4633 8.6275 25.925 8.08916Z" fill="#2E352E"/>
</svg>
