<svg width="69" height="75" viewBox="0 0 69 75" fill="none" xmlns="http://www.w3.org/2000/svg">
<path d="M61.8427 37.9516C61.5737 37.7955 61.2782 37.6461 60.9727 37.5C61.2782 37.3539 61.5737 37.2045 61.8427 37.0484C63.3653 36.1827 64.7017 35.0244 65.7748 33.6401C66.848 32.2559 67.6367 30.673 68.0956 28.9826C68.5545 27.2923 68.6746 25.5279 68.4488 23.7909C68.223 22.054 67.6559 20.3789 66.7802 18.8621C65.9044 17.3452 64.7372 16.0165 63.3458 14.9526C61.9545 13.8887 60.3664 13.1104 58.673 12.6628C56.9797 12.2151 55.2145 12.1067 53.4791 12.344C51.7437 12.5813 50.0724 13.1595 48.5614 14.0453C48.2925 14.2014 48.0136 14.3773 47.738 14.5732C47.7645 14.2412 47.7811 13.9092 47.7811 13.5771C47.7811 10.0547 46.3819 6.6766 43.8911 4.18589C41.4004 1.69517 38.0223 0.295898 34.4999 0.295898C30.9775 0.295898 27.5993 1.69517 25.1086 4.18589C22.6179 6.6766 21.2186 10.0547 21.2186 13.5771C21.2186 13.8893 21.2186 14.2213 21.2618 14.5732C20.9862 14.384 20.7073 14.2014 20.4384 14.0453C18.9273 13.1595 17.256 12.5813 15.5206 12.344C13.7853 12.1067 12.0201 12.2151 10.3267 12.6628C8.63338 13.1104 7.04531 13.8887 5.65394 14.9526C4.26258 16.0165 3.09541 17.3452 2.21962 18.8621C1.34384 20.3789 0.776737 22.054 0.550974 23.7909C0.325211 25.5279 0.445244 27.2923 0.904161 28.9826C1.36308 30.673 2.15181 32.2559 3.22496 33.6401C4.29811 35.0244 5.63447 36.1827 7.15711 37.0484C7.42605 37.2045 7.72156 37.3539 8.02703 37.5C7.72156 37.6461 7.42605 37.7955 7.15711 37.9516C5.63447 38.8173 4.29811 39.9756 3.22496 41.3599C2.15181 42.7442 1.36308 44.327 0.904161 46.0174C0.445244 47.7077 0.325211 49.4721 0.550974 51.2091C0.776737 52.946 1.34384 54.6211 2.21962 56.138C3.09541 57.6548 4.26258 58.9835 5.65394 60.0474C7.04531 61.1113 8.63338 61.8896 10.3267 62.3373C12.0201 62.785 13.7853 62.8933 15.5206 62.656C17.256 62.4187 18.9273 61.8405 20.4384 60.9547C20.7073 60.7986 20.9862 60.6227 21.2618 60.4268C21.2352 60.7588 21.2186 61.0908 21.2186 61.4063C21.2186 64.9287 22.6179 68.3068 25.1086 70.7975C27.5993 73.2882 30.9775 74.6875 34.4999 74.6875C38.0223 74.6875 41.4004 73.2882 43.8911 70.7975C46.3819 68.3068 47.7811 64.9287 47.7811 61.4063C47.7811 61.0941 47.7645 60.7621 47.738 60.4268C48.0136 60.616 48.2925 60.7986 48.5614 60.9547C50.5733 62.1202 52.8571 62.7341 55.1821 62.7344C56.3504 62.7328 57.5135 62.5788 58.6419 62.2762C61.1792 61.5961 63.4578 60.1789 65.1897 58.2038C66.9215 56.2287 68.0288 53.7844 68.3714 51.1799C68.714 48.5755 68.2766 45.928 67.1145 43.5722C65.9524 41.2164 64.1178 39.2581 61.8427 37.9449V37.9516ZM26.5311 37.5C26.5311 35.9239 26.9985 34.3833 27.8741 33.0728C28.7497 31.7623 29.9943 30.741 31.4504 30.1378C32.9065 29.5347 34.5087 29.3769 36.0545 29.6844C37.6003 29.9918 39.0202 30.7508 40.1346 31.8652C41.2491 32.9797 42.008 34.3996 42.3155 35.9454C42.623 37.4912 42.4652 39.0934 41.862 40.5495C41.2589 42.0056 40.2375 43.2502 38.9271 44.1258C37.6166 45.0014 36.076 45.4688 34.4999 45.4688C32.3864 45.4688 30.3596 44.6292 28.8651 43.1348C27.3707 41.6403 26.5311 39.6134 26.5311 37.5ZM51.2177 18.6439C52.1239 18.1207 53.1244 17.7811 54.1619 17.6445C55.1995 17.5079 56.2538 17.577 57.2646 17.8479C58.2754 18.1188 59.223 18.5861 60.0532 19.2231C60.8834 19.8602 61.5801 20.6546 62.1033 21.5608C62.6265 22.4671 62.9661 23.4676 63.1027 24.5051C63.2393 25.5427 63.1702 26.5969 62.8993 27.6078C62.6285 28.6186 62.1612 29.5662 61.5241 30.3964C60.8871 31.2266 60.0927 31.9233 59.1864 32.4465C57.1046 33.6518 53.0073 34.4818 47.5122 34.8338C46.9325 32.0227 45.4577 29.475 43.3087 27.5723C46.3634 22.9836 49.1358 19.8492 51.2177 18.6439ZM34.4999 5.625C36.6133 5.625 38.6402 6.46456 40.1346 7.95899C41.6291 9.45342 42.4686 11.4803 42.4686 13.5938C42.4686 15.9977 41.1405 19.9654 38.6968 24.9027C35.9732 23.9908 33.0266 23.9908 30.303 24.9027C27.8593 19.9654 26.5311 15.9977 26.5311 13.5938C26.5311 11.4803 27.3707 9.45342 28.8651 7.95899C30.3596 6.46456 32.3864 5.625 34.4999 5.625ZM6.8948 21.5625C7.41789 20.6558 8.11448 19.8611 8.94477 19.2237C9.77507 18.5864 10.7228 18.1188 11.7338 17.8478C12.7449 17.5767 13.7994 17.5076 14.8372 17.6442C15.875 17.7808 16.8757 18.1205 17.7821 18.6439C19.8639 19.8492 22.6364 22.9836 25.6911 27.5723C23.5402 29.4776 22.0653 32.029 21.4876 34.8438C15.9925 34.4918 11.8952 33.6617 9.81336 32.4598C8.90538 31.9367 8.10949 31.2396 7.47124 30.4086C6.83299 29.5775 6.36493 28.6287 6.09383 27.6165C5.82274 26.6043 5.75394 25.5485 5.89139 24.5097C6.02883 23.4709 6.36981 22.4694 6.8948 21.5625ZM17.7821 56.3561C15.9518 57.4128 13.7766 57.6991 11.7352 57.1521C9.69372 56.6051 7.95318 55.2695 6.89646 53.4392C5.83974 51.6088 5.55339 49.4337 6.10042 47.3922C6.64744 45.3508 7.98303 43.6102 9.81336 42.5535C11.8952 41.3482 15.9925 40.5182 21.4876 40.1662C22.0673 42.9774 23.5421 45.525 25.6911 47.4277C22.6364 52.0164 19.8639 55.1508 17.7821 56.3561ZM34.4999 69.375C32.3864 69.375 30.3596 68.5354 28.8651 67.041C27.3707 65.5466 26.5311 63.5197 26.5311 61.4063C26.5311 59.0023 27.8593 55.0346 30.303 50.0973C33.0266 51.0092 35.9732 51.0092 38.6968 50.0973C41.1405 55.0346 42.4686 59.0023 42.4686 61.4063C42.4686 63.5197 41.6291 65.5466 40.1346 67.041C38.6402 68.5354 36.6133 69.375 34.4999 69.375ZM62.105 53.4375C61.5819 54.3442 60.8853 55.1389 60.055 55.7763C59.2247 56.4137 58.277 56.8812 57.2659 57.1522C56.2549 57.4233 55.2004 57.4925 54.1626 57.3558C53.1248 57.2192 52.1241 56.8795 51.2177 56.3561C49.1358 55.1508 46.3634 52.0164 43.3087 47.4277C45.4595 45.5224 46.9345 42.971 47.5122 40.1563C53.0073 40.5082 57.1046 41.3383 59.1864 42.5402C60.0944 43.0633 60.8903 43.7604 61.5285 44.5914C62.1668 45.4225 62.6348 46.3713 62.9059 47.3835C63.177 48.3957 63.2458 49.4515 63.1084 50.4903C62.9709 51.5291 62.63 52.5306 62.105 53.4375Z" fill="#2E352E" fill-opacity="0.2"/>
</svg>
