<svg width="17" height="21" viewBox="0 0 17 21" fill="none" xmlns="http://www.w3.org/2000/svg">
<path d="M1.55501 2.12233C1.48914 2.04808 1.4092 1.98765 1.31981 1.94453C1.23041 1.90141 1.13335 1.87646 1.03425 1.87113C0.935143 1.8658 0.835966 1.88019 0.742464 1.91347C0.648962 1.94675 0.562995 1.99826 0.489546 2.06501C0.416097 2.13176 0.356627 2.21242 0.314583 2.30232C0.272538 2.39222 0.248754 2.48958 0.244611 2.58874C0.240468 2.6879 0.256048 2.7869 0.290447 2.87999C0.324846 2.97309 0.377381 3.05843 0.445006 3.13108L1.35719 4.13514C1.23844 4.12951 1.11938 4.1267 1.00001 4.1267C0.801093 4.1267 0.610328 4.20572 0.469675 4.34637C0.329023 4.48702 0.250005 4.67779 0.250005 4.8767V12.3767C0.252487 14.564 1.12248 16.661 2.66911 18.2076C4.21575 19.7542 6.31273 20.6242 8.50001 20.6267C10.6422 20.6284 12.7007 19.795 14.2384 18.3036L15.445 19.6311C15.5109 19.7053 15.5908 19.7658 15.6802 19.8089C15.7696 19.852 15.8667 19.8769 15.9658 19.8823C16.0649 19.8876 16.164 19.8732 16.2575 19.8399C16.351 19.8067 16.437 19.7551 16.5105 19.6884C16.5839 19.6216 16.6434 19.541 16.6854 19.4511C16.7275 19.3612 16.7513 19.2638 16.7554 19.1647C16.7595 19.0655 16.744 18.9665 16.7096 18.8734C16.6752 18.7803 16.6226 18.695 16.555 18.6223L1.55501 2.12233ZM9.27719 12.8455C8.97637 13.2691 8.71615 13.7201 8.50001 14.1926C7.89409 12.8729 6.95117 11.7362 5.76618 10.8968C4.5812 10.0575 3.19598 9.54512 1.75001 9.41139V5.66795C2.16909 5.71473 2.58281 5.80105 2.98563 5.92576L9.27719 12.8455ZM7.75001 19.0855C6.10065 18.899 4.57758 18.1121 3.47105 16.8749C2.36453 15.6377 1.75193 14.0366 1.75001 12.3767V10.918C3.39936 11.1044 4.92243 11.8913 6.02896 13.1285C7.13548 14.3657 7.74808 15.9668 7.75001 17.6267V19.0855ZM9.25001 19.0855V17.6267C9.25061 16.3371 9.62015 15.0746 10.315 13.9883L13.2288 17.1936C12.1521 18.2524 10.7508 18.9186 9.25001 19.0855ZM16.75 12.3767C16.7504 13.1179 16.6511 13.8558 16.4547 14.5705C16.4112 14.7288 16.3169 14.8685 16.1863 14.9681C16.0557 15.0676 15.8961 15.1216 15.7319 15.1217C15.6641 15.1223 15.5966 15.1135 15.5313 15.0955C15.3396 15.0427 15.1768 14.9159 15.0785 14.7431C14.9802 14.5703 14.9546 14.3656 15.0072 14.1739C15.168 13.5884 15.2497 12.9839 15.25 12.3767V10.917C14.4472 11.0046 13.667 11.2375 12.9475 11.6042C12.8594 11.6523 12.7625 11.6823 12.6626 11.6923C12.5627 11.7023 12.4618 11.6922 12.3659 11.6624C12.27 11.6327 12.181 11.5841 12.1043 11.5193C12.0276 11.4546 11.9646 11.3751 11.9191 11.2856C11.8737 11.1961 11.8467 11.0983 11.8397 10.9982C11.8327 10.898 11.8459 10.7974 11.8785 10.7025C11.9111 10.6075 11.9625 10.5201 12.0295 10.4453C12.0965 10.3706 12.1779 10.31 12.2688 10.2673C13.1982 9.79284 14.2104 9.50191 15.25 9.41045V5.66889C14.3153 5.77517 13.413 6.07477 12.6003 6.54863C11.7877 7.0225 11.0825 7.66027 10.5297 8.42139C10.4719 8.50141 10.3989 8.56927 10.3149 8.62108C10.2308 8.67289 10.1374 8.70765 10.04 8.72336C9.94252 8.73908 9.84292 8.73544 9.74687 8.71266C9.65081 8.68988 9.56019 8.64841 9.48016 8.59061C9.40014 8.53281 9.33228 8.45981 9.28047 8.37578C9.22866 8.29176 9.1939 8.19835 9.17819 8.10089C9.16247 8.00343 9.16611 7.90383 9.18889 7.80778C9.21167 7.71173 9.25314 7.6211 9.31094 7.54108C9.94662 6.66557 10.748 5.9234 11.6697 5.3567C10.8081 3.54545 9.19844 2.41483 8.50001 1.9892C7.67695 2.49577 6.93699 3.12631 6.30626 3.85858C6.24369 3.93695 6.16603 4.00198 6.07789 4.04982C5.98975 4.09765 5.89291 4.12733 5.7931 4.13708C5.69329 4.14684 5.59253 4.13648 5.4968 4.10661C5.40106 4.07675 5.31228 4.02799 5.23572 3.96321C5.15916 3.89844 5.09637 3.81897 5.05105 3.7295C5.00574 3.64004 4.97884 3.54239 4.97192 3.44234C4.96501 3.3423 4.97823 3.24188 5.0108 3.14703C5.04338 3.05218 5.09464 2.96483 5.16157 2.89014C6.00259 1.89948 7.01973 1.07306 8.16157 0.452639C8.26577 0.400499 8.38068 0.373352 8.49719 0.373352C8.61371 0.373352 8.72862 0.400499 8.83282 0.452639C8.95657 0.514514 11.6706 1.8992 13.0131 4.68545C13.9655 4.31568 14.9784 4.12621 16 4.1267C16.1989 4.1267 16.3897 4.20572 16.5303 4.34637C16.671 4.48702 16.75 4.67779 16.75 4.8767V12.3767Z" fill="#FFC600"/>
</svg>
