<svg width="29" height="25" viewBox="0 0 29 25" fill="none" xmlns="http://www.w3.org/2000/svg">
<path fill-rule="evenodd" clip-rule="evenodd" d="M0.150024 2.25C0.150024 1.7063 0.366006 1.18488 0.750455 0.800428C1.1349 0.415979 1.65633 0.199997 2.20002 0.199997H26.8C27.3437 0.199997 27.8651 0.415979 28.2496 0.800428C28.634 1.18488 28.85 1.7063 28.85 2.25C28.85 2.79369 28.634 3.31512 28.2496 3.69957C27.8651 4.08401 27.3437 4.3 26.8 4.3H2.20002C1.65633 4.3 1.1349 4.08401 0.750455 3.69957C0.366006 3.31512 0.150024 2.79369 0.150024 2.25ZM0.150024 12.5C0.150024 11.9563 0.366006 11.4349 0.750455 11.0504C1.1349 10.666 1.65633 10.45 2.20002 10.45H26.8C27.3437 10.45 27.8651 10.666 28.2496 11.0504C28.634 11.4349 28.85 11.9563 28.85 12.5C28.85 13.0437 28.634 13.5651 28.2496 13.9496C27.8651 14.334 27.3437 14.55 26.8 14.55H2.20002C1.65633 14.55 1.1349 14.334 0.750455 13.9496C0.366006 13.5651 0.150024 13.0437 0.150024 12.5ZM0.150024 22.75C0.150024 22.2063 0.366006 21.6849 0.750455 21.3004C1.1349 20.916 1.65633 20.7 2.20002 20.7H26.8C27.3437 20.7 27.8651 20.916 28.2496 21.3004C28.634 21.6849 28.85 22.2063 28.85 22.75C28.85 23.2937 28.634 23.8151 28.2496 24.1996C27.8651 24.584 27.3437 24.8 26.8 24.8H2.20002C1.65633 24.8 1.1349 24.584 0.750455 24.1996C0.366006 23.8151 0.150024 23.2937 0.150024 22.75Z" fill="#2E352E"/>
</svg>
