<svg width="67" height="67" viewBox="0 0 67 67" fill="none" xmlns="http://www.w3.org/2000/svg">
<path d="M66.0468 41.0071C66.1321 41.3539 66.1482 41.7141 66.0943 42.0671C66.0404 42.4201 65.9174 42.759 65.7325 43.0645C65.5476 43.37 65.3043 43.6361 65.0165 43.8475C64.7287 44.059 64.4021 44.2117 64.0553 44.2968L55.6815 46.3359L57.8769 54.5295C57.9694 54.8745 57.993 55.2343 57.9464 55.5885C57.8998 55.9426 57.7839 56.284 57.6052 56.5933C57.4266 56.9026 57.1888 57.1737 56.9054 57.391C56.6219 57.6083 56.2985 57.7677 55.9534 57.86C55.7245 57.926 55.4881 57.9625 55.2499 57.9688C54.6519 57.9682 54.0707 57.7704 53.5964 57.4061C53.122 57.0418 52.7811 56.5312 52.6264 55.9535L50.0028 46.166L36.2187 38.2102V54.1251L43.5797 61.4827C43.8323 61.7353 44.0327 62.0352 44.1694 62.3653C44.3061 62.6953 44.3765 63.049 44.3765 63.4063C44.3765 63.7635 44.3061 64.1172 44.1694 64.4473C44.0327 64.7773 43.8323 65.0772 43.5797 65.3298C43.3271 65.5824 43.0272 65.7827 42.6972 65.9194C42.3672 66.0562 42.0134 66.1265 41.6562 66.1265C41.299 66.1265 40.9452 66.0562 40.6152 65.9194C40.2852 65.7827 39.9853 65.5824 39.7327 65.3298L33.4999 59.0936L27.2672 65.3298C27.0146 65.5824 26.7147 65.7827 26.3847 65.9194C26.0547 66.0562 25.7009 66.1265 25.3437 66.1265C24.9865 66.1265 24.6327 66.0562 24.3027 65.9194C23.9727 65.7827 23.6728 65.5824 23.4202 65.3298C23.1676 65.0772 22.9672 64.7773 22.8305 64.4473C22.6938 64.1172 22.6234 63.7635 22.6234 63.4063C22.6234 63.049 22.6938 62.6953 22.8305 62.3653C22.9672 62.0352 23.1676 61.7353 23.4202 61.4827L30.7812 54.1251V38.2102L17.0005 46.166L14.3769 55.9535C14.222 56.5318 13.8806 57.0427 13.4056 57.4071C12.9306 57.7715 12.3486 57.9689 11.7499 57.9688C11.5114 57.9684 11.2738 57.9375 11.0431 57.877C10.698 57.7847 10.3746 57.6253 10.0911 57.408C9.80771 57.1906 9.56989 56.9196 9.39126 56.6103C9.21263 56.301 9.0967 55.9596 9.05007 55.6054C9.00345 55.2513 9.02706 54.8915 9.11956 54.5465L11.3149 46.3529L2.9412 44.3138C2.24087 44.1417 1.63761 43.6984 1.26414 43.0814C0.890662 42.4645 0.77756 41.7245 0.949712 41.0241C1.12186 40.3238 1.56517 39.7206 2.18211 39.3471C2.79904 38.9736 3.53907 38.8605 4.2394 39.0327L14.2478 41.4897L28.0624 33.5L14.2512 25.5273L4.2428 27.9843C4.03045 28.0369 3.81245 28.0632 3.5937 28.0625C2.92893 28.063 2.28703 27.8198 1.78935 27.3791C1.29168 26.9384 0.972727 26.3306 0.892796 25.6706C0.812866 25.0107 0.977498 24.3443 1.35557 23.7975C1.73363 23.2507 2.29894 22.8614 2.94459 22.7032L11.3183 20.6641L9.12295 12.4535C8.93638 11.7568 9.03422 11.0145 9.39495 10.3899C9.75568 9.76529 10.3497 9.30958 11.0465 9.12301C11.7432 8.93644 12.4855 9.03428 13.1101 9.395C13.7347 9.75573 14.1904 10.3498 14.3769 11.0465L17.0005 20.834L30.7812 28.7898V12.8749L23.4202 5.51727C22.91 5.00712 22.6234 4.31521 22.6234 3.59375C22.6234 3.23652 22.6938 2.88279 22.8305 2.55275C22.9672 2.22271 23.1676 1.92284 23.4202 1.67024C23.6728 1.41764 23.9727 1.21726 24.3027 1.08056C24.6327 0.943851 24.9865 0.873489 25.3437 0.873489C26.0652 0.873489 26.7571 1.16009 27.2672 1.67024L33.4999 7.90637L39.7327 1.67024C40.2428 1.16009 40.9347 0.873489 41.6562 0.873489C42.3777 0.873489 43.0696 1.16009 43.5797 1.67024C44.0899 2.18038 44.3765 2.87229 44.3765 3.59375C44.3765 4.31521 44.0899 5.00712 43.5797 5.51727L36.2187 12.8749V28.7898L49.9994 20.834L52.623 11.0465C52.8095 10.3498 53.2652 9.75573 53.8898 9.395C54.5144 9.03428 55.2567 8.93644 55.9534 9.12301C56.6501 9.30958 57.2442 9.76529 57.6049 10.3899C57.9657 11.0145 58.0635 11.7568 57.8769 12.4535L55.6815 20.6471L64.0553 22.6862C64.719 22.8279 65.3056 23.2127 65.7 23.765C66.0944 24.3173 66.268 24.9971 66.1866 25.6708C66.1053 26.3446 65.7749 26.9636 65.2604 27.4061C64.7459 27.8487 64.0845 28.0828 63.4062 28.0625C63.1874 28.0632 62.9694 28.0369 62.7571 27.9843L52.7487 25.5273L38.9374 33.5L52.7487 41.4727L62.7571 39.0157C63.1039 38.9304 63.464 38.9142 63.8171 38.9681C64.1701 39.0221 64.509 39.145 64.8145 39.3299C65.12 39.5149 65.386 39.7582 65.5975 40.046C65.8089 40.3337 65.9616 40.6604 66.0468 41.0071Z" fill="#2E352E" fill-opacity="0.2"/>
</svg>
