<svg width="21" height="22" viewBox="0 0 21 22" fill="none" xmlns="http://www.w3.org/2000/svg">
<path d="M14.9365 3.53937C14.7704 2.68448 14.3124 1.91388 13.6408 1.35944C12.9692 0.804999 12.1258 0.50119 11.2549 0.5C11.056 0.5 10.8652 0.579018 10.7246 0.71967C10.5839 0.860322 10.5049 1.05109 10.5049 1.25C10.5049 1.44891 10.5839 1.63968 10.7246 1.78033C10.8652 1.92098 11.056 2 11.2549 2C11.7314 2 12.1955 2.15124 12.5805 2.43193C12.9655 2.71262 13.2514 3.10826 13.3971 3.56187C11.9699 3.76961 10.6651 4.48382 9.72104 5.57406C8.77693 6.6643 8.25654 8.0578 8.25493 9.5C8.25493 13.8828 5.84086 16.8125 1.08024 18.2188C0.754602 18.3137 0.47075 18.5162 0.275001 18.7932C0.0792523 19.0702 -0.0168347 19.4053 0.00241989 19.744C0.0216745 20.0826 0.155134 20.4047 0.381019 20.6578C0.606905 20.9108 0.911879 21.0798 1.24618 21.1372C2.65526 21.3808 4.08276 21.5022 5.51274 21.5C9.33586 21.5 13.5902 20.6422 16.5312 18.1756C19.0024 16.1037 20.2549 13.1844 20.2549 9.5C20.2534 8.02722 19.7107 6.60634 18.7302 5.50741C17.7497 4.40848 16.3996 3.7081 14.9365 3.53937ZM14.2549 5C15.1913 5.00124 16.1041 5.29414 16.8663 5.838C17.6286 6.38185 18.2025 7.14965 18.5084 8.03469L17.2549 8.65625L14.5906 7.32781C14.4864 7.27567 14.3714 7.24853 14.2549 7.24853C14.1384 7.24853 14.0235 7.27567 13.9193 7.32781L11.2549 8.65625L10.0015 8.03C10.3082 7.14591 10.8825 6.37921 11.6447 5.83626C12.4069 5.29331 13.3191 5.00104 14.2549 5ZM15.5674 17.0281C13.8799 18.4409 11.4799 19.3962 8.61868 19.7909C6.25423 20.1036 3.85623 20.0593 1.50493 19.6597C6.87024 18.0781 9.72024 14.5972 9.75493 9.58906L10.9212 10.1722C11.0254 10.2243 11.1403 10.2515 11.2568 10.2515C11.3733 10.2515 11.4882 10.2243 11.5924 10.1722L14.2549 8.83719L16.9193 10.1694C17.0235 10.2215 17.1384 10.2487 17.2549 10.2487C17.3714 10.2487 17.4864 10.2215 17.5906 10.1694L18.754 9.58813C18.7343 12.7663 17.6627 15.2694 15.5674 17.0272V17.0281Z" fill="#FF6666"/>
</svg>
