<svg width="77" height="77" viewBox="0 0 77 77" fill="none" xmlns="http://www.w3.org/2000/svg">
<path d="M35.9688 10.6562V3.0625C35.9688 2.39117 36.2354 1.74734 36.7101 1.27264C37.1848 0.797934 37.8287 0.53125 38.5 0.53125C39.1713 0.53125 39.8152 0.797934 40.2899 1.27264C40.7646 1.74734 41.0312 2.39117 41.0312 3.0625V10.6562C41.0312 11.3276 40.7646 11.9714 40.2899 12.4461C39.8152 12.9208 39.1713 13.1875 38.5 13.1875C37.8287 13.1875 37.1848 12.9208 36.7101 12.4461C36.2354 11.9714 35.9688 11.3276 35.9688 10.6562ZM58.75 38.5C58.75 42.5051 57.5624 46.4202 55.3373 49.7503C53.1122 53.0804 49.9495 55.6759 46.2493 57.2086C42.5491 58.7412 38.4775 59.1423 34.5494 58.3609C30.6213 57.5796 27.0131 55.6509 24.1811 52.8189C21.3491 49.9869 19.4205 46.3787 18.6391 42.4506C17.8577 38.5225 18.2588 34.4509 19.7914 30.7507C21.3241 27.0505 23.9196 23.8878 27.2497 21.6627C30.5798 19.4376 34.4949 18.25 38.5 18.25C43.8688 18.2559 49.0161 20.3912 52.8124 24.1876C56.6088 27.9839 58.7441 33.1312 58.75 38.5ZM53.6875 38.5C53.6875 35.4962 52.7968 32.5598 51.1279 30.0623C49.4591 27.5647 47.0872 25.6181 44.312 24.4686C41.5369 23.3191 38.4832 23.0183 35.5371 23.6043C32.591 24.1903 29.8848 25.6368 27.7608 27.7608C25.6368 29.8848 24.1903 32.591 23.6043 35.5371C23.0183 38.4832 23.3191 41.5369 24.4686 44.312C25.6181 47.0872 27.5647 49.4591 30.0623 51.1279C32.5598 52.7968 35.4962 53.6875 38.5 53.6875C42.5267 53.6833 46.3873 52.0819 49.2346 49.2346C52.0819 46.3873 53.6833 42.5267 53.6875 38.5ZM16.4591 20.0409C16.9341 20.5158 17.5783 20.7827 18.25 20.7827C18.9217 20.7827 19.5659 20.5158 20.0409 20.0409C20.5158 19.5659 20.7827 18.9217 20.7827 18.25C20.7827 17.5783 20.5158 16.9341 20.0409 16.4591L14.9784 11.3966C14.5034 10.9217 13.8592 10.6548 13.1875 10.6548C12.5158 10.6548 11.8716 10.9217 11.3966 11.3966C10.9217 11.8716 10.6548 12.5158 10.6548 13.1875C10.6548 13.8592 10.9217 14.5034 11.3966 14.9784L16.4591 20.0409ZM16.4591 56.9591L11.3966 62.0216C10.9217 62.4966 10.6548 63.1408 10.6548 63.8125C10.6548 64.4842 10.9217 65.1284 11.3966 65.6034C11.8716 66.0783 12.5158 66.3452 13.1875 66.3452C13.8592 66.3452 14.5034 66.0783 14.9784 65.6034L20.0409 60.5409C20.276 60.3057 20.4626 60.0265 20.5899 59.7192C20.7171 59.4119 20.7827 59.0826 20.7827 58.75C20.7827 58.4174 20.7171 58.0881 20.5899 57.7808C20.4626 57.4735 20.276 57.1943 20.0409 56.9591C19.8057 56.724 19.5265 56.5374 19.2192 56.4101C18.9119 56.2829 18.5826 56.2173 18.25 56.2173C17.9174 56.2173 17.5881 56.2829 17.2808 56.4101C16.9735 56.5374 16.6943 56.724 16.4591 56.9591ZM58.75 20.7812C59.0825 20.7815 59.4118 20.7163 59.7191 20.5892C60.0264 20.4622 60.3056 20.2758 60.5409 20.0409L65.6034 14.9784C66.0783 14.5034 66.3452 13.8592 66.3452 13.1875C66.3452 12.5158 66.0783 11.8716 65.6034 11.3966C65.1284 10.9217 64.4842 10.6548 63.8125 10.6548C63.1408 10.6548 62.4966 10.9217 62.0216 11.3966L56.9591 16.4591C56.6047 16.8132 56.3633 17.2644 56.2655 17.7556C56.1677 18.2469 56.2178 18.7562 56.4096 19.2189C56.6013 19.6817 56.926 20.0772 57.3427 20.3553C57.7593 20.6334 58.2491 20.7816 58.75 20.7812ZM60.5409 56.9591C60.0659 56.4842 59.4217 56.2173 58.75 56.2173C58.0783 56.2173 57.4341 56.4842 56.9591 56.9591C56.4842 57.4341 56.2173 58.0783 56.2173 58.75C56.2173 59.4217 56.4842 60.0659 56.9591 60.5409L62.0216 65.6034C62.2568 65.8385 62.536 66.0251 62.8433 66.1524C63.1506 66.2796 63.4799 66.3452 63.8125 66.3452C64.1451 66.3452 64.4744 66.2796 64.7817 66.1524C65.089 66.0251 65.3682 65.8385 65.6034 65.6034C65.8385 65.3682 66.0251 65.089 66.1524 64.7817C66.2796 64.4744 66.3452 64.1451 66.3452 63.8125C66.3452 63.4799 66.2796 63.1506 66.1524 62.8433C66.0251 62.536 65.8385 62.2568 65.6034 62.0216L60.5409 56.9591ZM13.1875 38.5C13.1875 37.8287 12.9208 37.1848 12.4461 36.7101C11.9714 36.2354 11.3276 35.9688 10.6562 35.9688H3.0625C2.39117 35.9688 1.74734 36.2354 1.27264 36.7101C0.797934 37.1848 0.53125 37.8287 0.53125 38.5C0.53125 39.1713 0.797934 39.8152 1.27264 40.2899C1.74734 40.7646 2.39117 41.0312 3.0625 41.0312H10.6562C11.3276 41.0312 11.9714 40.7646 12.4461 40.2899C12.9208 39.8152 13.1875 39.1713 13.1875 38.5ZM38.5 63.8125C37.8287 63.8125 37.1848 64.0792 36.7101 64.5539C36.2354 65.0286 35.9688 65.6724 35.9688 66.3438V73.9375C35.9688 74.6088 36.2354 75.2527 36.7101 75.7274C37.1848 76.2021 37.8287 76.4688 38.5 76.4688C39.1713 76.4688 39.8152 76.2021 40.2899 75.7274C40.7646 75.2527 41.0312 74.6088 41.0312 73.9375V66.3438C41.0312 65.6724 40.7646 65.0286 40.2899 64.5539C39.8152 64.0792 39.1713 63.8125 38.5 63.8125ZM73.9375 35.9688H66.3438C65.6724 35.9688 65.0286 36.2354 64.5539 36.7101C64.0792 37.1848 63.8125 37.8287 63.8125 38.5C63.8125 39.1713 64.0792 39.8152 64.5539 40.2899C65.0286 40.7646 65.6724 41.0312 66.3438 41.0312H73.9375C74.6088 41.0312 75.2527 40.7646 75.7274 40.2899C76.2021 39.8152 76.4688 39.1713 76.4688 38.5C76.4688 37.8287 76.2021 37.1848 75.7274 36.7101C75.2527 36.2354 74.6088 35.9688 73.9375 35.9688Z" fill="#2E352E" fill-opacity="0.2"/>
</svg>
