<svg width="85" height="75" viewBox="0 0 85 75" fill="none" xmlns="http://www.w3.org/2000/svg">
<g clip-path="url(#clip0_41_20)">
<path d="M57.7617 16.569C58.4752 21.4938 57.4196 26.5356 54.8269 30.5853C52.2343 34.635 48.317 37.3607 43.937 38.163C39.5569 38.9653 35.0728 37.7783 31.4711 34.8632C27.8694 31.9481 25.4451 27.5437 24.7316 22.6188L41.2466 19.5939L57.7617 16.569Z" fill="#3E3B35"/>
<path d="M26.0968 22.0509L68.4414 13.5595" stroke="#3E3B35" stroke-width="2.31861" stroke-linecap="round"/>
<path d="M46.8446 4.99362C46.8386 4.2544 48.0908 3.08849 49.9565 3.08849C52.5175 3.08849 46.8833 10.9489 45.3467 10.5655C43.8101 10.1821 43.4687 2.89678 44.8345 2.12991C45.8715 1.5477 46.5804 3.68203 46.8446 4.99362Z" fill="white"/>
<path d="M46.8833 5.1974C46.5988 4.49443 47.9077 3.08849 49.9565 3.08849C52.5175 3.08849 46.8833 10.9489 45.3467 10.5655C43.8101 10.1821 43.4687 2.89678 44.8345 2.12991C45.9272 1.51641 46.6557 3.91928 46.8833 5.1974Z" stroke="white" stroke-width="0.695584"/>
<path d="M27.7848 15.8541C27.7811 14.5233 26.081 10.3704 21.8603 13.1254" stroke="#3E3B35" stroke-width="1.62303" stroke-linecap="round"/>
<path d="M53.5974 9.88737C51.9242 11.0678 51.3196 11.4618 50.4116 13.4597" stroke="#3E3B35" stroke-width="1.15931" stroke-linecap="round"/>
<path d="M30.6923 12.4983C30.3064 9.68791 27.4669 4.34728 19.196 5.46781" stroke="#3E3B35" stroke-width="1.62303" stroke-linecap="round"/>
<path d="M39.5 9.42674C37.2942 7.22976 35.6652 9.21549 35.1264 10.483C34.8412 12.7011 36.4575 14.0742 38.0738 13.6517C39.6902 13.2292 42.2572 12.173 39.5 9.42674Z" fill="#3E3B35" stroke="#3E3B35" stroke-width="1.62303" stroke-linecap="round"/>
<path d="M25.5206 22.1512L67.8652 13.6598" stroke="#3E3B35" stroke-width="2.31861" stroke-linecap="round"/>
<path d="M46.8446 4.99362C46.8386 4.2544 48.0908 3.08849 49.9565 3.08849C52.5175 3.08849 46.8833 10.9489 45.3467 10.5655C43.8101 10.1821 43.4687 2.89678 44.8345 2.12991C45.8715 1.5477 46.5804 3.68203 46.8446 4.99362Z" fill="#FD5841"/>
<path d="M46.8833 5.1974C46.5988 4.49443 47.9077 3.08849 49.9565 3.08849C52.5175 3.08849 46.8833 10.9489 45.3467 10.5655C43.8101 10.1821 43.4687 2.89678 44.8345 2.12991C45.9272 1.51641 46.6557 3.91928 46.8833 5.1974Z" stroke="#FD5841" stroke-width="0.695584"/>
<path d="M27.7848 15.8541C27.7811 14.5233 26.081 10.3704 21.8603 13.1254" stroke="#3E3B35" stroke-width="1.62303" stroke-linecap="round"/>
<path d="M53.5974 9.88737C51.9242 11.0678 51.3196 11.4618 50.4116 13.4597" stroke="#3E3B35" stroke-width="1.15931" stroke-linecap="round"/>
<path d="M30.6923 12.4983C30.3064 9.68791 27.4669 4.34728 19.196 5.46781" stroke="#3E3B35" stroke-width="1.62303" stroke-linecap="round"/>
<path d="M39.5 9.42674C37.2942 7.22976 35.6652 9.21549 35.1264 10.483C34.8412 12.7011 36.4575 14.0742 38.0738 13.6517C39.6902 13.2292 42.2572 12.173 39.5 9.42674Z" fill="#3E3B35" stroke="#3E3B35" stroke-width="1.62303" stroke-linecap="round"/>
<path d="M1.1801 45.6302L0.528063 35.2399L3.42805 35.0579L3.91951 42.8895L8.43231 42.6063L8.59289 45.1651L1.1801 45.6302ZM13.4925 45.0911C12.9032 45.1281 12.3407 45.0129 11.8049 44.7455C11.2692 44.4781 10.8164 44.0447 10.4467 43.4451C10.0866 42.8346 9.8767 42.0537 9.81701 41.1026C9.76121 40.2135 9.8741 39.4487 10.1557 38.8083C10.4476 38.1672 10.8523 37.6695 11.3698 37.3153C11.897 36.9501 12.4811 36.7473 13.122 36.7071C13.5356 36.6812 13.9446 36.7489 14.3492 36.9103C14.7634 37.0608 15.1085 37.2675 15.3845 37.5304L15.3388 36.8015L18.0061 36.6342L18.5025 44.5432L15.8351 44.7106L15.7524 43.3924C15.5832 43.839 15.3064 44.2248 14.922 44.5499C14.5376 44.875 14.0611 45.0554 13.4925 45.0911ZM14.1141 42.3431C14.3415 42.3288 14.5706 42.2574 14.8012 42.1287C15.0312 41.9898 15.2215 41.7962 15.372 41.548C15.5321 41.2888 15.6002 40.968 15.5762 40.5855L15.5285 39.8256C15.2894 39.6538 15.0212 39.5149 14.7239 39.409C14.437 39.3025 14.1436 39.2586 13.8438 39.2774C13.5854 39.2936 13.3573 39.3806 13.1596 39.5383C12.9722 39.6954 12.8292 39.8964 12.7304 40.1413C12.6316 40.3862 12.5909 40.6483 12.6084 40.9274C12.626 41.2065 12.6987 41.4563 12.8267 41.6766C12.965 41.8963 13.1418 42.0668 13.357 42.1882C13.5826 42.309 13.8349 42.3606 14.1141 42.3431Z" fill="#3E3B35"/>
<path d="M7.18002 60.265C6.69811 60.3875 6.21825 60.3919 5.74044 60.2782C5.27267 60.1619 4.85596 59.9312 4.4903 59.5859C4.13469 59.2381 3.88287 58.773 3.73487 58.1907L2.94636 55.0884L1.86207 55.364L1.46016 53.7827C1.91893 53.5272 2.2466 53.1553 2.44317 52.6671C2.64978 52.1764 2.78058 51.5767 2.83559 50.868L4.52227 50.4392L5.01987 52.397L7.18845 51.8458L7.70519 53.8789L5.53661 54.43L6.08397 56.5836C6.17839 56.955 6.32395 57.2333 6.52064 57.4185C6.72483 57.5911 7.00262 57.6327 7.35401 57.5434C7.6552 57.4668 7.88841 57.3541 8.05365 57.2052C8.22638 57.0437 8.39408 56.8835 8.55677 56.7246L9.10796 58.8932C9.00346 59.1549 8.78215 59.4196 8.44402 59.6872C8.10334 59.9448 7.682 60.1374 7.18002 60.265ZM13.6858 58.6114C13.1135 58.7569 12.5394 58.7478 11.9634 58.5843C11.3874 58.4207 10.8622 58.0786 10.3878 57.5578C9.92094 57.0245 9.57011 56.296 9.33534 55.3724C9.11589 54.509 9.08522 53.7365 9.24334 53.055C9.41151 52.371 9.71707 51.807 10.16 51.3631C10.6105 50.9066 11.1469 50.5992 11.7694 50.441C12.171 50.3389 12.5855 50.3297 13.0129 50.4135C13.4479 50.4846 13.8253 50.6239 14.1452 50.8311L13.9653 50.1233L16.5555 49.465L18.5077 57.1454L15.9174 57.8037L15.5921 56.5237C15.5085 56.9938 15.3079 57.4242 14.9904 57.8149C14.6728 58.2056 14.238 58.4711 13.6858 58.6114ZM13.7878 55.7959C14.0087 55.7397 14.2205 55.6271 14.4234 55.458C14.6237 55.2788 14.7748 55.0533 14.8767 54.7816C14.9861 54.4973 14.9937 54.1693 14.8992 53.7979L14.7117 53.06C14.4449 52.9354 14.1556 52.8486 13.8439 52.7996C13.5422 52.748 13.2457 52.7592 12.9546 52.8332C12.7036 52.897 12.4956 53.0247 12.3305 53.2163C12.1755 53.4053 12.0721 53.6293 12.0203 53.8883C11.9686 54.1473 11.9772 54.4123 12.0461 54.6834C12.115 54.9545 12.2327 55.1864 12.3993 55.3792C12.5759 55.5695 12.7812 55.7043 13.0152 55.7838C13.2592 55.8607 13.5167 55.8648 13.7878 55.7959ZM29.8174 54.2708L28.715 49.9336C28.6181 49.5521 28.4501 49.3115 28.211 49.212C27.9794 49.0998 27.7331 49.0769 27.4721 49.1433C27.2411 49.202 27.0595 49.3283 26.9271 49.5223C26.8022 49.7037 26.695 49.9126 26.6054 50.1491L25.7773 48.4678C25.9111 47.9849 26.143 47.5518 26.4732 47.1686C26.8108 46.7729 27.2356 46.5099 27.7476 46.3798C28.2697 46.2471 28.7622 46.2502 29.225 46.3891C29.6853 46.5179 30.0858 46.7902 30.4266 47.2059C30.7775 47.6191 31.0409 48.172 31.217 48.8648L32.4227 53.6086L29.8174 54.2708ZM20.616 56.6095L18.6639 48.9291L21.2541 48.2707L23.2063 55.9511L20.616 56.6095ZM25.2092 55.442L24.1068 51.1049C24.0098 50.7234 23.8418 50.4828 23.6027 50.3833C23.3712 50.2711 23.1248 50.2482 22.8638 50.3146C22.6329 50.3732 22.4563 50.4983 22.3339 50.6897C22.219 50.8686 22.1168 51.0762 22.0273 51.3128L21.5068 49.2647C21.6112 49.003 21.7259 48.7601 21.8506 48.536C21.9728 48.3018 22.1303 48.1015 22.3231 47.9349C22.5259 47.7658 22.798 47.6378 23.1394 47.5511C23.7418 47.3979 24.3047 47.4259 24.8281 47.6349C25.3515 47.8439 25.7827 48.2366 26.1216 48.8132L26.559 49.8403L27.8145 54.7798L25.2092 55.442ZM39.3925 52.0775C38.8403 52.2179 38.3315 52.1922 37.8659 52.0006C37.4004 51.809 37.0186 51.5266 36.7207 51.1534L37.046 52.4334L34.4558 53.0918L31.6998 42.2489L34.2901 41.5905L35.2738 45.4609C35.4559 45.126 35.716 44.8247 36.0541 44.5571C36.3998 44.2768 36.7734 44.0857 37.1749 43.9836C37.7974 43.8254 38.4105 43.8406 39.0142 44.0292C39.6254 44.2052 40.1632 44.5548 40.6276 45.0781C41.1019 45.5988 41.4489 46.2909 41.6683 47.1543C41.9031 48.0779 41.9427 48.8855 41.7871 49.5771C41.629 50.2585 41.3309 50.8099 40.8929 51.2312C40.4649 51.65 39.9648 51.9321 39.3925 52.0775ZM37.9584 49.6524C38.2396 49.5809 38.4639 49.4544 38.6315 49.2729C38.7992 49.0913 38.9101 48.8761 38.9644 48.6271C39.0288 48.3756 39.0265 48.1143 38.9576 47.8433C38.8887 47.5722 38.7697 47.3352 38.6005 47.1324C38.4314 46.9295 38.2286 46.7834 37.9921 46.6938C37.7656 46.6018 37.5269 46.5876 37.2759 46.6514C36.9947 46.7229 36.7289 46.8546 36.4785 47.0465C36.238 47.2359 36.0253 47.4503 35.8403 47.6897L36.0279 48.4276C36.1223 48.7991 36.2804 49.0849 36.5023 49.285C36.7317 49.4725 36.9771 49.5972 37.2387 49.659C37.5077 49.7082 37.7476 49.706 37.9584 49.6524ZM47.9765 49.8957C47.4444 50.031 46.9018 50.062 46.3488 49.9888C45.7958 49.9156 45.2725 49.7493 44.7791 49.49C44.2856 49.2306 43.8559 48.8856 43.4899 48.4549C43.1314 48.0116 42.8769 47.4937 42.7263 46.9014C42.5758 46.3091 42.5534 45.7376 42.6593 45.1869C42.7727 44.6237 42.9842 44.1103 43.2939 43.6468C43.6036 43.1833 43.984 42.7874 44.4349 42.459C44.8859 42.1306 45.3774 41.8988 45.9095 41.7635C46.4416 41.6283 46.9842 41.5973 47.5372 41.6705C48.0902 41.7437 48.6135 41.91 49.1069 42.1693C49.6004 42.4287 50.0264 42.78 50.3849 43.2233C50.7509 43.654 51.0091 44.1655 51.1597 44.7579C51.3102 45.3502 51.3288 45.928 51.2155 46.4912C51.1096 47.0419 50.9018 47.5489 50.5921 48.0125C50.2824 48.476 49.902 48.8719 49.4511 49.2003C49.0001 49.5287 48.5086 49.7605 47.9765 49.8957ZM47.3449 47.4109C47.5357 47.3624 47.7313 47.2699 47.9317 47.1335C48.1322 46.997 48.2834 46.7929 48.3853 46.5212C48.4873 46.2494 48.4834 45.8977 48.3737 45.466C48.2614 45.0243 48.0969 44.7134 47.8801 44.5333C47.6608 44.3432 47.4304 44.2361 47.1892 44.2119C46.9479 44.1877 46.7318 44.1999 46.5411 44.2484C46.3604 44.2943 46.1648 44.3868 45.9543 44.5258C45.7538 44.6623 45.6026 44.8664 45.5007 45.1381C45.3962 45.3998 45.4001 45.7515 45.5123 46.1933C45.6221 46.625 45.7866 46.9359 46.0059 47.126C46.2252 47.316 46.4556 47.4232 46.6968 47.4474C46.9482 47.469 47.1642 47.4568 47.3449 47.4109ZM57.3737 47.5072C56.6609 47.6884 55.9952 47.7187 55.3766 47.598C54.7581 47.4773 54.2257 47.2118 53.7794 46.8015C53.3431 46.3887 53.0369 45.8359 52.8609 45.1431L51.6896 40.5349L54.2949 39.8727L55.2901 43.7882C55.4228 44.3103 55.6001 44.6714 55.822 44.8715C56.0539 45.0691 56.3606 45.1194 56.7421 45.0224C57.1236 44.9254 57.3641 44.7361 57.4635 44.4543C57.5729 44.1699 57.5613 43.7667 57.4286 43.2447L56.4334 39.3292L59.0387 38.667L60.21 43.2752C60.386 43.968 60.3759 44.6011 60.1797 45.1747C59.9935 45.7458 59.6575 46.232 59.1717 46.6334C58.6858 47.0348 58.0865 47.3261 57.3737 47.5072ZM62.7158 36.4818C62.2741 36.5941 61.8543 36.5405 61.4565 36.3209C61.0561 36.0914 60.8011 35.7607 60.6913 35.329C60.579 34.8873 60.6453 34.475 60.89 34.0921C61.1347 33.7093 61.4779 33.4617 61.9197 33.3494C62.2008 33.278 62.4797 33.2819 62.7564 33.3612C63.0431 33.438 63.2924 33.5777 63.5042 33.7804C63.7135 33.973 63.8551 34.2149 63.9291 34.5061C64.0006 34.7872 63.9916 35.0673 63.9023 35.3466C63.8129 35.6258 63.6606 35.8676 63.4454 36.0719C63.2401 36.2737 62.997 36.4104 62.7158 36.4818ZM63.8973 45.6086L61.9452 37.9282L64.5354 37.2699L66.4876 44.9503L63.8973 45.6086ZM61.2311 40.3543L60.6952 38.2459L64.5354 37.2699L65.0713 39.3782L61.2311 40.3543ZM68.5357 44.4297L65.7797 33.5868L68.37 32.9284L71.1259 43.7713L68.5357 44.4297ZM73.2343 43.2354L70.4783 32.3925L73.0686 31.7342L75.8245 42.5771L73.2343 43.2354ZM81.6949 41.3255C81.1528 41.4633 80.6027 41.5069 80.0448 41.4563C79.4969 41.4032 78.9787 41.257 78.4904 41.0177C78.002 40.7784 77.5811 40.4472 77.2277 40.024C76.8718 39.5907 76.616 39.0679 76.4603 38.4554C76.2664 37.6924 76.2647 36.95 76.4554 36.2282C76.656 35.5038 77.0141 34.8731 77.5295 34.3359C78.055 33.7962 78.7043 33.4281 79.4774 33.2316C80.2002 33.0478 80.8836 33.0452 81.5275 33.2235C82.1714 33.4019 82.7229 33.7427 83.1822 34.2459C83.6489 34.7365 83.9831 35.3784 84.1846 36.1715L84.4105 37.06L78.974 38.4418L78.5759 36.8756L81.5577 36.1177C81.4964 35.8768 81.3801 35.6926 81.2088 35.5651C81.0375 35.4376 80.8425 35.3643 80.6238 35.3451C80.4026 35.3158 80.1765 35.3305 79.9456 35.3892C79.6444 35.4657 79.3975 35.6086 79.2049 35.8179C79.0197 36.0146 78.9002 36.2802 78.8462 36.6145C78.7922 36.9489 78.8252 37.352 78.9452 37.8239C79.0421 38.2054 79.2028 38.5012 79.4273 38.7114C79.6617 38.919 79.9399 39.046 80.2616 39.0925C80.5834 39.139 80.92 39.1176 81.2714 39.0283C81.8537 38.8803 82.3353 38.6723 82.7161 38.4045C83.1044 38.1241 83.3887 37.8969 83.5689 37.7228L84.1316 39.9366C83.989 40.0904 83.7962 40.257 83.5532 40.4363C83.3202 40.6131 83.047 40.7787 82.7335 40.9332C82.4227 41.0978 82.0764 41.2285 81.6949 41.3255Z" fill="#3E3B35"/>
<path d="M10.8534 72.5475L5.43556 65.6151L8.44202 64.9619L10.8571 68.5396L11.5548 64.2856L14.5613 63.6324L12.5388 72.1813L10.8534 72.5475ZM21.1674 70.5451C20.6207 70.6639 20.0695 70.6882 19.5136 70.6182C18.9679 70.5459 18.4552 70.3817 17.9755 70.1255C17.4958 69.8693 17.0868 69.5236 16.7484 69.0883C16.4078 68.6428 16.1704 68.1114 16.0363 67.4939C15.8691 66.7245 15.8934 65.9825 16.1091 65.2678C16.335 64.5509 16.7149 63.933 17.2488 63.4142C17.7928 62.8932 18.4546 62.548 19.234 62.3786C19.9629 62.2203 20.6459 62.2415 21.2832 62.4422C21.9204 62.643 22.4598 63.0029 22.9011 63.5218C23.3504 64.0284 23.6619 64.6816 23.8357 65.4813L24.0303 66.3772L18.5488 67.5681L18.2057 65.989L21.2122 65.3357C21.1594 65.0928 21.0496 64.9046 20.8829 64.7713C20.7161 64.6379 20.5238 64.5578 20.3059 64.5309C20.0859 64.4939 19.8594 64.5007 19.6266 64.5513C19.3229 64.6173 19.0711 64.7515 18.8713 64.9539C18.6794 65.144 18.5506 65.4052 18.485 65.7375C18.4194 66.0697 18.4383 66.4738 18.5417 66.9495C18.6252 67.3342 18.7755 67.6355 18.9924 67.8534C19.2195 68.069 19.493 68.2057 19.813 68.2634C20.1329 68.3211 20.4701 68.3115 20.8244 68.2345C21.4115 68.1069 21.9 67.916 22.29 67.6616C22.6879 67.395 22.9799 67.1778 23.1661 67.0101L23.6511 69.2422C23.5032 69.391 23.3047 69.5507 23.0555 69.7214C22.8165 69.89 22.5377 70.046 22.2191 70.1894C21.9026 70.343 21.552 70.4615 21.1674 70.5451ZM17.919 62.1078L18.9426 59.5003L21.281 58.9922L19.7715 61.7053L17.919 62.1078ZM30.3104 72.3748C29.8853 72.4672 29.4868 72.5114 29.1149 72.5074C28.743 72.5034 28.3836 72.4595 28.0368 72.3759C27.6922 72.3023 27.3399 72.1934 26.9799 72.049L26.4785 69.741C26.842 69.8528 27.1708 69.951 27.4647 70.0355C27.7689 70.1179 28.0866 70.1654 28.418 70.1782C28.7516 70.2012 29.131 70.1664 29.5561 70.0741C29.9813 69.9817 30.3281 69.8215 30.5966 69.5936C30.8651 69.3656 31.0507 69.0974 31.1532 68.7889C31.2681 68.4883 31.2937 68.1913 31.2299 67.8977L30.9957 66.8196C30.8957 67.2866 30.6802 67.7097 30.3492 68.089C30.0182 68.4684 29.5743 68.7185 29.0176 68.8395C28.4406 68.9649 27.8671 68.9357 27.2972 68.7521C26.7273 68.5686 26.2144 68.2083 25.7585 67.6713C25.3105 67.122 24.9854 66.3817 24.783 65.4504C24.5939 64.5798 24.5902 63.8068 24.7721 63.1312C24.964 62.4535 25.2891 61.9005 25.7473 61.4723C26.2135 61.0318 26.7603 60.7434 27.388 60.607C27.7929 60.5191 28.2074 60.5244 28.6317 60.623C29.0639 60.7093 29.4362 60.8617 29.7486 61.08L29.5936 60.3663L32.2053 59.7989L33.8383 67.3151C34.0164 68.135 33.969 68.8927 33.6961 69.588C33.4253 70.2935 32.9933 70.8909 32.4 71.3802C31.8067 71.8695 31.1101 72.2011 30.3104 72.3748ZM29.218 66.0292C29.4407 65.9808 29.6563 65.8756 29.865 65.7137C30.0714 65.5417 30.2303 65.3216 30.3417 65.0536C30.461 64.7733 30.4799 64.4458 30.3986 64.0713L30.2369 63.3273C29.9746 63.1934 29.6886 63.0966 29.3787 63.0367C29.079 62.9746 28.7824 62.9754 28.4888 63.0392C28.2358 63.0942 28.0234 63.2145 27.8517 63.4003C27.6902 63.5838 27.579 63.804 27.5183 64.061C27.4575 64.3181 27.4568 64.5832 27.5162 64.8565C27.5756 65.1299 27.6851 65.3658 27.8449 65.5643C28.0147 65.7606 28.2152 65.9025 28.4462 65.9902C28.6874 66.0756 28.9446 66.0886 29.218 66.0292ZM39.7984 66.4972C39.2517 66.6159 38.7005 66.6403 38.1446 66.5703C37.5989 66.498 37.0862 66.3338 36.6065 66.0776C36.1268 65.8214 35.7178 65.4756 35.3794 65.0403C35.0388 64.5949 34.8014 64.0634 34.6673 63.4459C34.5001 62.6766 34.5244 61.9346 34.7401 61.2199C34.966 60.503 35.3459 59.8851 35.8798 59.3663C36.4238 58.8452 37.0856 58.5001 37.865 58.3307C38.5939 58.1723 39.2769 58.1936 39.9142 58.3943C40.5514 58.5951 41.0908 58.9549 41.5321 59.4739C41.9814 59.9805 42.2929 60.6337 42.4667 61.4334L42.6613 62.3292L37.1798 63.5202L36.8367 61.941L39.8432 61.2878C39.7904 61.0449 39.6806 60.8567 39.5138 60.7233C39.3471 60.59 39.1547 60.5098 38.9369 60.483C38.7168 60.446 38.4904 60.4528 38.2576 60.5034C37.9539 60.5693 37.7021 60.7035 37.5023 60.906C37.3104 61.0961 37.1816 61.3573 37.116 61.6895C37.0504 62.0218 37.0693 62.4258 37.1726 62.9016C37.2562 63.2863 37.4065 63.5875 37.6234 63.8054C37.8505 64.0211 38.124 64.1578 38.444 64.2155C38.7639 64.2732 39.1011 64.2635 39.4553 64.1866C40.0425 64.059 40.531 63.868 40.921 63.6137C41.3189 63.347 41.6109 63.1299 41.7971 62.9622L42.2821 65.1943C42.1342 65.343 41.9357 65.5028 41.6865 65.6735C41.4475 65.842 41.1687 65.998 40.85 66.1415C40.5336 66.295 40.183 66.4136 39.7984 66.4972ZM36.55 58.0599L37.5736 55.4523L39.9119 54.9443L38.4025 57.6574L36.55 58.0599ZM48.2408 64.6629C47.7549 64.7685 47.2752 64.7561 46.8016 64.6258C46.3382 64.4932 45.9298 64.248 45.5764 63.8902C45.2332 63.5301 44.9978 63.0566 44.8702 62.4694L44.1906 59.3415L43.0974 59.579L42.751 57.9847C43.2184 57.7453 43.5589 57.3851 43.7724 56.9041C43.996 56.4209 44.1477 55.8261 44.2274 55.1197L45.9281 54.7503L46.3569 56.7242L48.5435 56.2491L48.9888 58.299L46.8023 58.7741L47.2741 60.9454C47.3554 61.3199 47.4912 61.6032 47.6813 61.7951C47.8793 61.9747 48.1555 62.026 48.5098 61.949C48.8135 61.883 49.0505 61.7785 49.2208 61.6355C49.3991 61.4802 49.5723 61.3259 49.7404 61.1728L50.2155 63.3593C50.1019 63.6172 49.8715 63.874 49.5242 64.1296C49.1747 64.3752 48.7469 64.5529 48.2408 64.6629ZM54.8003 63.2377C54.2233 63.3631 53.6499 63.334 53.08 63.1504C52.51 62.9668 51.9971 62.6065 51.5412 62.0695C51.0933 61.5202 50.7681 60.7799 50.5658 59.8486C50.3766 58.978 50.373 58.205 50.5548 57.5294C50.7468 56.8517 51.0719 56.2987 51.5301 55.8706C51.9962 55.4301 52.5431 55.1416 53.1707 55.0053C53.5756 54.9173 53.9902 54.9226 54.4144 55.0213C54.8466 55.1076 55.2189 55.2599 55.5314 55.4782L55.3763 54.7646L57.988 54.1971L59.6705 61.9411L57.0588 62.5085L56.7784 61.2178C56.6785 61.6848 56.463 62.1079 56.132 62.4873C55.801 62.8666 55.3571 63.1168 54.8003 63.2377ZM55.0007 60.4274C55.2234 60.379 55.4391 60.2739 55.6477 60.1119C55.8541 59.9399 56.013 59.7198 56.1244 59.4518C56.2437 59.1715 56.2627 58.844 56.1813 58.4695L56.0196 57.7255C55.7574 57.5917 55.4713 57.4948 55.1615 57.4349C54.8618 57.3728 54.5651 57.3737 54.2716 57.4374C54.0185 57.4924 53.8061 57.6128 53.6345 57.7985C53.4729 57.982 53.3618 58.2022 53.301 58.4593C53.2402 58.7163 53.2395 58.9814 53.2989 59.2548C53.3583 59.5281 53.4679 59.764 53.6276 59.9625C53.7975 60.1588 53.9979 60.3008 54.229 60.3884C54.4701 60.4738 54.7274 60.4868 55.0007 60.4274ZM61.7963 61.4792L59.421 50.5466L62.0327 49.9791L64.408 60.9118L61.7963 61.4792ZM70.3186 59.8661C69.7719 59.9849 69.2207 60.0092 68.6648 59.9392C68.1191 59.8669 67.6064 59.7027 67.1267 59.4465C66.647 59.1903 66.238 58.8446 65.8996 58.4093C65.559 57.9638 65.3216 57.4324 65.1875 56.8149C65.0203 56.0455 65.0446 55.3035 65.2603 54.5888C65.4862 53.8719 65.8661 53.254 66.4 52.7352C66.944 52.2142 67.6058 51.869 68.3852 51.6996C69.1141 51.5413 69.7971 51.5625 70.4344 51.7632C71.0716 51.964 71.611 52.3239 72.0523 52.8428C72.5016 53.3494 72.8131 54.0026 72.9869 54.8023L73.1815 55.6981L67.7 56.8891L67.3569 55.3099L70.3634 54.6567C70.3106 54.4138 70.2008 54.2256 70.0341 54.0923C69.8673 53.9589 69.675 53.8788 69.4571 53.8519C69.2371 53.8149 69.0106 53.8217 68.7778 53.8723C68.4741 53.9383 68.2223 54.0725 68.0225 54.2749C67.8306 54.465 67.7018 54.7262 67.6362 55.0585C67.5706 55.3907 67.5895 55.7948 67.6929 56.2705C67.7764 56.6552 67.9267 56.9565 68.1436 57.1743C68.3707 57.39 68.6442 57.5267 68.9642 57.5844C69.2841 57.6421 69.6213 57.6325 69.9756 57.5555C70.5627 57.4279 71.0512 57.237 71.4412 56.9826C71.8391 56.716 72.1311 56.4988 72.3173 56.3311L72.8023 58.5632C72.6544 58.712 72.4559 58.8717 72.2067 59.0424C71.9677 59.211 71.6889 59.3669 71.3703 59.5104C71.0538 59.6639 70.7032 59.7825 70.3186 59.8661Z" fill="#3E3B35"/>
</g>
<defs>
<clipPath id="clip0_41_20">
<rect width="85" height="75" fill="white"/>
</clipPath>
</defs>
</svg>
